<svg width="160" height="160" viewBox="0 0 160 160" fill="none" xmlns="http://www.w3.org/2000/svg">
  <g>
    <ellipse cx="80" cy="86" rx="54" ry="16" transform="rotate(-12 80 86)" stroke="white" stroke-width="4"/>
    <ellipse cx="80" cy="86" rx="40" ry="12" transform="rotate(-12 80 86)" stroke="white" stroke-width="2" opacity="0.5"/>
    <circle cx="80" cy="80" r="28" fill="white"/>
    <path d="M52 84C58 74 69 68 80 68C91 68 102 74 108 84" stroke="black" stroke-opacity="0.08" stroke-width="3" stroke-linecap="round"/>
    <path d="M66 59C70 56 75 54 80 54C85 54 90 56 94 59" stroke="white" stroke-width="3" stroke-linecap="round" opacity="0.7"/>
    <path d="M37 91C48 97 63 101 80 101C97 101 112 97 123 91" stroke="white" stroke-width="5" stroke-linecap="round"/>
  </g>
</svg>
